<?xml version="1.0" encoding="UTF-8" standalone="no"?>
<!-- Created with Inkscape (http://www.inkscape.org/) -->

<svg
   width="65mm"
   height="65mm"
   viewBox="0 0 65 65"
   version="1.1"
   id="svg1"
   inkscape:version="1.3.2 (091e20ef0f, 2023-11-25)"
   sodipodi:docname="gwcdt.svg"
   xmlns:inkscape="http://www.inkscape.org/namespaces/inkscape"
   xmlns:sodipodi="http://sodipodi.sourceforge.net/DTD/sodipodi-0.dtd"
   xmlns:xlink="http://www.w3.org/1999/xlink"
   xmlns="http://www.w3.org/2000/svg"
   xmlns:svg="http://www.w3.org/2000/svg">
  <sodipodi:namedview
     id="namedview1"
     pagecolor="#ffffff"
     bordercolor="#000000"
     borderopacity="0.25"
     inkscape:showpageshadow="2"
     inkscape:pageopacity="0.0"
     inkscape:pagecheckerboard="0"
     inkscape:deskcolor="#d1d1d1"
     inkscape:document-units="mm"
     inkscape:zoom="2.2848847"
     inkscape:cx="150.9923"
     inkscape:cy="257.56223"
     inkscape:window-width="2560"
     inkscape:window-height="2735"
     inkscape:window-x="0"
     inkscape:window-y="32"
     inkscape:window-maximized="1"
     inkscape:current-layer="g15" />
  <defs
     id="defs1" />
  <g
     inkscape:label="Layer 1"
     inkscape:groupmode="layer"
     id="layer1">
    <g
       id="g15"
       transform="matrix(1.10133,0,0,1.10133,-42.462772,-65.899706)">
      <g
         id="g1"
         transform="translate(0.02052292,0.84718991)">
        <circle
           style="fill:none;fill-opacity:1;stroke:none;stroke-width:3;stroke-linecap:butt;stroke-dasharray:none;stroke-dashoffset:0;stroke-opacity:1;paint-order:stroke markers fill"
           id="path4"
           cx="68.952988"
           cy="90.055489"
           r="23.406654" />
        <text
           xml:space="preserve"
           style="font-size:10.0458px;font-family:Carlito;-inkscape-font-specification:Carlito;text-align:center;text-anchor:middle;fill:#000000;fill-opacity:1;stroke:none;stroke-width:3;stroke-linecap:butt;stroke-dasharray:none;stroke-dashoffset:0;stroke-opacity:1;paint-order:stroke markers fill"
           id="text4"
           transform="rotate(87.330235,68.487379,88.659678)"><textPath
             xlink:href="#path4"
             startOffset="50%"
             id="textPath4"><tspan
               id="tspan4"
               style="stroke-width:3">Genome wide CRISPR design tool</tspan></textPath></text>
        <path
           style="fill:#1a1a1a;fill-opacity:1;stroke:none;stroke-width:3;stroke-linecap:butt;stroke-dasharray:none;stroke-dashoffset:0;stroke-opacity:1;paint-order:stroke markers fill"
           d="m 62.244807,69.509861 c 0,0 -3.35786,1.562899 -5.690095,4.510073 -1.685053,2.12935 -4.696871,5.669129 4.301002,14.404459 10.033703,9.740937 11.670552,10.873197 12.292304,13.275287 0.917919,3.5463 -3.605027,3.88621 -10.661636,4.24406 -7.056609,0.35785 -6.44783,1.00405 -6.44783,1.00405 0,0 -0.01431,-0.93387 7.310179,-1.75765 5.104448,-0.5741 7.471967,-0.71369 7.461431,-3.26349 C 70.7964,98.595883 60.038945,88.659086 56.538975,85.677493 48.910856,79.179167 54.716111,73.75529 56.923729,72.131274 c 2.421779,-1.781562 5.321078,-2.621413 5.321078,-2.621413 z"
           id="path5"
           sodipodi:nodetypes="csssscssssc" />
        <path
           style="fill:#1a1a1a;fill-opacity:1;stroke:none;stroke-width:3;stroke-linecap:butt;stroke-dasharray:none;stroke-dashoffset:0;stroke-opacity:1;paint-order:stroke markers fill"
           d="m 78.036153,72.865664 c 0,0 7.905406,8.370464 4.019635,15.649398 -3.885769,7.278933 -20.206994,-0.05948 -20.206994,-0.05948 0,0 7.65064,3.876643 15.214651,4.244059 7.319117,0.35552 8.914704,-5.708861 7.297607,-11.150672 -1.537047,-5.172427 -6.324899,-8.683304 -6.324899,-8.683304 z"
           id="path6"
           sodipodi:nodetypes="cscsscc" />
        <path
           style="fill:#1a1a1a;fill-opacity:1;stroke:none;stroke-width:3;stroke-linecap:butt;stroke-dasharray:none;stroke-dashoffset:0;stroke-opacity:1;paint-order:stroke markers fill"
           d="m 58.925162,88.651486 c -0.983742,-0.210378 -9.827501,-2.973514 -10.656784,1.614432 -0.829286,4.587947 5.891148,9.176312 7.781009,11.758772 1.428875,1.95253 1.689571,3.40538 1.689571,3.40538 0,0 0.871636,-2.5831 -3.331399,-7.238946 -4.354118,-4.82321 -5.996069,-6.484602 -4.975556,-8.468348 1.329557,-2.584491 9.493159,-1.07129 9.493159,-1.07129 z"
           id="path7"
           sodipodi:nodetypes="csscssc" />
        <path
           style="fill:#1a1a1a;fill-opacity:1;stroke:none;stroke-width:3;stroke-linecap:butt;stroke-dasharray:none;stroke-dashoffset:0;stroke-opacity:1;paint-order:stroke markers fill"
           d="m 61.260821,70.796538 -2.250744,1.434269 c 0,0 1.219179,-0.0746 6.230718,0.91871 5.011539,0.993318 14.883482,3.080565 14.883482,3.080565 0,0 -18.074447,-3.960963 -18.530514,-4.323411 -0.456068,-0.362447 -0.332942,-1.110133 -0.332942,-1.110133 z"
           id="path8" />
        <path
           style="fill:#1a1a1a;fill-opacity:1;stroke:none;stroke-width:3;stroke-linecap:butt;stroke-dasharray:none;stroke-dashoffset:0;stroke-opacity:1;paint-order:stroke markers fill"
           d="m 58.48907,73.063081 -2.243463,2.560489 26.215557,7.255806 c 0,0 -23.778151,-7.045425 -24.06202,-7.698144 -0.283872,-0.65272 0.08993,-2.118151 0.08993,-2.118151 z"
           id="path9" />
        <path
           style="fill:#1a1a1a;fill-opacity:1;stroke:none;stroke-width:3;stroke-linecap:butt;stroke-dasharray:none;stroke-dashoffset:0;stroke-opacity:1;paint-order:stroke markers fill"
           d="m 56.124317,76.445228 c 0,0 -0.197742,0.775631 -0.322871,1.460905 -0.125132,0.685273 0.07595,1.633133 0.07595,1.633133 0,0 0.474887,-0.233329 3.071145,0.336931 2.596259,0.570256 22.237991,7.448811 22.237991,7.448811 0,0 -21.226891,-8.107928 -23.002565,-8.620064 -1.775674,-0.512138 -2.059649,-2.259716 -2.05965,-2.259716 z"
           id="path10" />
        <path
           style="fill:#1a1a1a;fill-opacity:1;stroke:none;stroke-width:3;stroke-linecap:butt;stroke-dasharray:none;stroke-dashoffset:0;stroke-opacity:1;paint-order:stroke markers fill"
           d="m 56.3376,81.307045 2.372225,3.550139 c 0,0 0.736899,-0.07495 1.642118,0.08188 0.905219,0.156834 16.13067,6.352336 16.13067,6.352336 0,0 -16.270359,-7.082388 -17.46305,-7.9604 C 57.826871,82.452988 56.3376,81.307044 56.3376,81.307045 Z"
           id="path11" />
        <path
           style="fill:#1a1a1a;fill-opacity:1;stroke:none;stroke-width:3;stroke-linecap:butt;stroke-dasharray:none;stroke-dashoffset:0;stroke-opacity:1;paint-order:stroke markers fill"
           d="m 58.271128,89.054674 -4.571516,-0.344776 c 0,0 1.694132,0.44078 2.562564,1.24128 0.868431,0.800499 10.180312,6.041104 10.180312,6.041104 0,0 -9.026023,-5.535684 -9.086689,-5.968619 -0.06067,-0.432932 0.915329,-0.968989 0.915329,-0.968989 z"
           id="path12" />
        <path
           style="fill:#1a1a1a;fill-opacity:1;stroke:none;stroke-width:3;stroke-linecap:butt;stroke-dasharray:none;stroke-dashoffset:0;stroke-opacity:1;paint-order:stroke markers fill"
           d="m 52.626917,88.990706 c 0,0 -1.86014,0.35759 -2.382255,0.827815 -0.522118,0.470226 -0.59096,0.769194 -0.59096,0.769194 0,0 0.796922,0.01582 1.327793,0.178014 0.530873,0.162185 18.860259,12.321871 18.860259,12.321871 0,0 -17.206696,-11.643312 -17.58582,-12.437404 -0.379127,-0.794094 0.370983,-1.65949 0.370983,-1.65949 z"
           id="path13" />
        <path
           style="fill:#1a1a1a;fill-opacity:1;stroke:none;stroke-width:3;stroke-linecap:butt;stroke-dasharray:none;stroke-dashoffset:0;stroke-opacity:1;paint-order:stroke markers fill"
           d="m 50.998118,93.487215 2.606313,3.235788 c 0,0 0.213304,-0.35796 1.886217,0.495414 1.672913,0.853374 10.559846,7.222243 10.559846,7.222243 0,0 -11.655134,-8.351593 -12.4939,-9.149016 -0.838766,-0.79742 -2.558476,-1.804429 -2.558476,-1.804429 z"
           id="path14" />
        <path
           style="fill:#1a1a1a;fill-opacity:1;stroke:none;stroke-width:3;stroke-linecap:butt;stroke-dasharray:none;stroke-dashoffset:0;stroke-opacity:1;paint-order:stroke markers fill"
           d="m 56.885619,100.48042 1.376084,2.35249 3.185189,2.23653 c 0,0 -2.383155,-2.06472 -3.045735,-2.97269 -0.66258,-0.90798 -1.515538,-1.61633 -1.515538,-1.61633 z"
           id="path15" />
      </g>
    </g>
  </g>
</svg>
