<?xml version="1.0" encoding="UTF-8" standalone="no"?>
<!-- Created with Inkscape (http://www.inkscape.org/) -->

<svg
   width="65mm"
   height="65mm"
   viewBox="0 0 65 65"
   version="1.1"
   id="svg1"
   inkscape:version="1.3.2 (091e20ef0f, 2023-11-25)"
   sodipodi:docname="gwcdt2.svg"
   xmlns:inkscape="http://www.inkscape.org/namespaces/inkscape"
   xmlns:sodipodi="http://sodipodi.sourceforge.net/DTD/sodipodi-0.dtd"
   xmlns:xlink="http://www.w3.org/1999/xlink"
   xmlns="http://www.w3.org/2000/svg"
   xmlns:svg="http://www.w3.org/2000/svg">
  <sodipodi:namedview
     id="namedview1"
     pagecolor="#ffffff"
     bordercolor="#000000"
     borderopacity="0.25"
     inkscape:showpageshadow="2"
     inkscape:pageopacity="0.0"
     inkscape:pagecheckerboard="0"
     inkscape:deskcolor="#d1d1d1"
     inkscape:document-units="mm"
     inkscape:zoom="0.80782873"
     inkscape:cx="151.02211"
     inkscape:cy="83.557315"
     inkscape:window-width="2560"
     inkscape:window-height="1455"
     inkscape:window-x="0"
     inkscape:window-y="32"
     inkscape:window-maximized="1"
     inkscape:current-layer="g15" />
  <defs
     id="defs1" />
  <g
     inkscape:label="Layer 1"
     inkscape:groupmode="layer"
     id="layer1">
    <g
       id="g15"
       transform="matrix(1.10133,0,0,1.10133,-42.462772,-65.899706)">
      <circle
         style="fill:none;fill-opacity:1;stroke:none;stroke-width:3;stroke-linecap:butt;stroke-dasharray:none;stroke-dashoffset:0;stroke-opacity:1;paint-order:stroke markers fill"
         id="path4"
         cx="68.973511"
         cy="90.902679"
         r="23.406654" />
      <text
         xml:space="preserve"
         style="font-size:10.0458px;font-family:Carlito;-inkscape-font-specification:Carlito;text-align:center;text-anchor:middle;fill:#000000;fill-opacity:1;stroke:none;stroke-width:3;stroke-linecap:butt;stroke-dasharray:none;stroke-dashoffset:0;stroke-opacity:1;paint-order:stroke markers fill"
         id="text4"
         transform="rotate(87.330235,68.507902,89.506868)"><textPath
           xlink:href="#path4"
           startOffset="50%"
           id="textPath4"><tspan
             id="tspan4"
             style="stroke-width:3">Genome wide CRISPR design tool</tspan></textPath></text>
      <path
         id="path5"
         style="fill:#1a1a1a;fill-opacity:1;stroke:none;stroke-width:3;stroke-linecap:butt;stroke-dasharray:none;stroke-dashoffset:0;stroke-opacity:1;paint-order:stroke markers fill"
         d="M 62.265509 70.356822 C 62.265509 70.356822 59.365878 71.196787 56.944103 72.978345 C 54.736489 74.602359 48.931241 80.026369 56.559344 86.524681 C 57.116998 86.999742 57.896795 87.693437 58.750125 88.466776 L 58.989426 87.321883 C 52.34842 79.995472 55.021831 76.830017 56.575297 74.86695 C 58.907528 71.919782 62.265509 70.356822 62.265509 70.356822 z M 61.281558 71.643888 L 59.030717 73.07782 C 59.030717 73.07782 60.24994 73.003241 65.261469 73.996549 C 70.272998 74.989865 80.144608 77.077438 80.144608 77.077438 C 80.144608 77.077438 62.070301 73.116507 61.614234 72.754059 C 61.158166 72.391612 61.281558 71.643888 61.281558 71.643888 z M 78.056586 73.712672 C 78.056586 73.712672 85.962143 82.083125 82.07638 89.362045 C 80.33838 92.617716 76.113085 92.946303 71.9727 92.318121 L 72.235931 92.88306 C 73.805034 93.217318 75.444085 93.467351 77.083896 93.547004 C 84.402999 93.902524 85.998745 87.837829 84.38165 82.396028 C 82.844607 77.223613 78.056586 73.712673 78.056586 73.712672 z M 58.509416 73.910213 L 56.266082 76.470738 L 82.481785 83.726732 C 82.481785 83.726732 58.703664 76.680982 58.419795 76.028265 C 58.135923 75.375547 58.509416 73.910213 58.509416 73.910213 z M 56.145024 77.29234 C 56.145024 77.29234 55.947331 78.068212 55.822202 78.753486 C 55.69707 79.438757 55.897746 80.386366 55.897746 80.386366 C 55.897746 80.386366 56.372996 80.153005 58.96925 80.723265 C 61.565503 81.293519 81.206918 88.172107 81.206918 88.172107 C 81.206918 88.172107 59.980094 80.064231 58.204424 79.552095 C 56.428754 79.039959 56.145025 77.29234 56.145024 77.29234 z M 56.358049 82.154381 L 58.730418 85.704487 C 58.730418 85.704487 59.467465 85.629303 60.372682 85.786131 C 60.53045 85.813466 61.222928 86.066692 62.094244 86.396115 L 62.166973 86.391423 L 62.177296 86.428022 C 63.038665 86.754472 64.212204 87.216518 65.445872 87.703358 L 65.414903 87.228509 C 62.243658 85.795945 59.502851 84.518778 59.040102 84.17812 C 57.847412 83.30011 56.358049 82.15438 56.358049 82.154381 z M 52.650285 88.483199 C 50.54877 88.505689 48.651711 89.105946 48.2889 91.113168 C 47.459616 95.701107 54.180092 100.28932 56.069949 102.87178 C 57.498822 104.82431 57.759605 106.27737 57.759605 106.27737 C 57.759605 106.27737 58.631181 103.69411 54.428154 99.038267 C 50.074044 94.215067 48.432051 92.553555 49.452562 90.569813 C 50.679853 88.184112 57.469634 89.25382 58.546953 89.438058 L 58.55493 89.399582 C 57.587404 89.149743 55.036876 88.457658 52.650285 88.483199 z M 53.720103 89.55724 C 53.720103 89.55724 55.414075 89.997823 56.282505 90.798323 C 56.481087 90.981371 57.153525 91.41298 58.022836 91.944623 L 58.118557 91.488543 C 57.699797 91.186152 57.386282 90.94262 57.376253 90.871051 C 57.315583 90.438121 58.291698 89.901646 58.291698 89.901646 L 53.720103 89.55724 z M 70.698303 89.583516 L 70.820299 89.84534 C 73.469285 90.912751 76.503004 92.13841 76.503004 92.13841 C 76.503004 92.13841 73.806973 90.958258 70.698303 89.583516 z M 63.147171 89.822817 L 63.17157 89.909154 C 63.79883 90.186744 64.671164 90.540722 65.656081 90.914689 L 65.64482 90.738263 C 64.594278 90.387784 63.800819 90.082453 63.147171 89.822817 z M 52.64747 89.837832 C 52.64747 89.837832 50.787363 90.195309 50.265248 90.665534 C 49.743132 91.135758 49.674033 91.435052 49.674033 91.435052 C 49.674033 91.435052 50.471052 91.450692 51.001921 91.612886 C 51.327588 91.712379 57.344504 95.666432 62.725812 99.218916 L 62.695313 99.032637 C 57.891991 95.724533 52.489495 91.943965 52.276318 91.497458 C 51.897193 90.703366 52.64747 89.837832 52.64747 89.837832 z M 51.018813 94.334353 L 53.624852 97.570083 C 53.624852 97.570083 53.838201 97.212205 55.51111 98.065577 C 56.706253 98.675236 60.72505 101.50173 63.413217 103.4081 L 63.406648 103.36775 C 60.226364 101.08125 54.227414 96.757329 53.576992 96.138967 C 52.738228 95.341547 51.018813 94.334353 51.018813 94.334353 z M 69.384022 97.492662 L 69.555287 99.926967 C 70.33516 101.07932 70.82774 102.07621 70.830622 102.77372 C 70.834422 103.69325 70.523792 104.29635 69.892185 104.72238 L 69.987437 106.07795 C 72.449517 105.54209 73.690687 104.56359 73.168738 102.54708 C 72.798961 101.11848 72.024824 100.10113 69.384022 97.492662 z M 56.906096 101.32758 L 58.282314 103.68025 L 61.467369 105.91654 C 61.467369 105.91654 59.08425 103.85201 58.421672 102.94404 C 57.759094 102.03606 56.906096 101.32758 56.906096 101.32758 z M 69.835879 103.91673 L 69.835879 103.9172 L 69.862155 103.93456 L 69.835879 103.91673 z M 63.835983 105.98458 C 63.675084 106.0025 63.535837 106.01838 63.369111 106.03713 C 58.323975 106.60455 56.787507 107.2173 56.303151 107.54801 C 56.793983 107.32739 58.239671 107.00755 62.506687 106.79116 C 63.013378 106.76547 63.475672 106.73763 63.955165 106.71093 L 63.835983 105.98458 z M 56.303151 107.54801 C 55.982267 107.69225 56.059157 107.79482 56.059157 107.79482 C 56.059157 107.79482 56.084323 107.69743 56.303151 107.54801 z " />
      <path
         id="path1"
         style="fill:#1a1a1a;stroke-width:2.72398;paint-order:stroke markers fill"
         d="M 67.419404 86.792136 L 66.564019 86.87378 L 67.376236 92.320467 L 61.867143 92.922005 L 60.859731 87.445288 L 60.130565 87.472502 C 60.130565 87.472502 58.924005 92.863425 59.453483 93.883434 C 59.982962 94.903453 64.045724 96.748481 64.045724 96.748481 L 63.881497 97.032359 C 63.881497 97.032359 66.073551 115.24072 66.241666 116.24122 C 66.409781 117.24171 66.322945 117.96572 67.910676 117.98202 C 68.752225 117.85181 69.057231 117.61217 69.49335 116.9915 C 69.929466 116.37084 67.844516 96.360907 67.844516 96.360907 L 66.818805 95.349272 L 69.415929 95.034426 L 69.033985 93.769883 C 69.033985 93.769883 69.789189 94.259973 70.177001 92.760594 C 70.564811 91.26121 67.419404 86.792136 67.419404 86.792136 z M 68.43667 114.79368 C 69.223532 114.79627 69.121883 116.50351 68.091794 116.98587 C 66.823993 117.57955 66.711966 116.03121 67.750673 115.10008 C 68.026428 114.88313 68.255086 114.79309 68.43667 114.79368 z " />
    </g>
  </g>
</svg>
